REM DIRINDEX 1\2,1\3,1\4,1\5
REM DIRNAME folder01,folder02,folder03,folder04,folder05
TITLE ""
FILE "1Q_t_1961-1970.mp3" MP3
  TRACK 01 AUDIO
    TITLE "3:cjc004_6791"
    INDEX 01 00:00:00
  TRACK 02 AUDIO
    TITLE "0:"
    INDEX 01 00:01:03
  TRACK 03 AUDIO
    TITLE "4:cjc004_6792"
    INDEX 01 00:01:28
  TRACK 04 AUDIO
    TITLE "0:"
    INDEX 01 00:02:51
  TRACK 05 AUDIO
    TITLE "5:cjc004_6793"
    INDEX 01 00:03:02
  TRACK 06 AUDIO
    TITLE "0:"
    INDEX 01 00:07:45
  TRACK 07 AUDIO
    TITLE "3:cjc004_6794"
    INDEX 01 00:08:19
  TRACK 08 AUDIO
    TITLE "0:"
    INDEX 01 00:09:34
  TRACK 09 AUDIO
    TITLE "4:cjc004_6795"
    INDEX 01 00:09:61
  TRACK 10 AUDIO
    TITLE "0:"
    INDEX 01 00:11:39
  TRACK 11 AUDIO
    TITLE "5:cjc004_6796"
    INDEX 01 00:11:64
  TRACK 12 AUDIO
    TITLE "0:"
    INDEX 01 00:16:12
  TRACK 13 AUDIO
    TITLE "3:cjc004_6797"
    INDEX 01 00:16:65
  TRACK 14 AUDIO
    TITLE "0:"
    INDEX 01 00:17:72
  TRACK 15 AUDIO
    TITLE "4:cjc004_6798"
    INDEX 01 00:18:25
  TRACK 16 AUDIO
    TITLE "0:"
    INDEX 01 00:20:04
  TRACK 17 AUDIO
    TITLE "5:cjc004_6799"
    INDEX 01 00:20:26
  TRACK 18 AUDIO
    TITLE "0:"
    INDEX 01 00:25:39
  TRACK 19 AUDIO
    TITLE "3:cjc004_6800"
    INDEX 01 00:26:17
  TRACK 20 AUDIO
    TITLE "0:"
    INDEX 01 00:27:34
  TRACK 21 AUDIO
    TITLE "4:cjc004_6801"
    INDEX 01 00:27:63
  TRACK 22 AUDIO
    TITLE "0:"
    INDEX 01 00:29:03
  TRACK 23 AUDIO
    TITLE "5:cjc004_6802"
    INDEX 01 00:29:27
  TRACK 24 AUDIO
    TITLE "0:"
    INDEX 01 00:32:48
  TRACK 25 AUDIO
    TITLE "3:cjc004_6803"
    INDEX 01 00:33:22
  TRACK 26 AUDIO
    TITLE "0:"
    INDEX 01 00:34:36
  TRACK 27 AUDIO
    TITLE "4:cjc004_6804"
    INDEX 01 00:34:63
  TRACK 28 AUDIO
    TITLE "0:"
    INDEX 01 00:36:31
  TRACK 29 AUDIO
    TITLE "5:cjc004_6805"
    INDEX 01 00:36:58
  TRACK 30 AUDIO
    TITLE "0:"
    INDEX 01 00:42:27
  TRACK 31 AUDIO
    TITLE "3:cjc004_6806"
    INDEX 01 00:43:01
  TRACK 32 AUDIO
    TITLE "0:"
    INDEX 01 00:44:24
  TRACK 33 AUDIO
    TITLE "4:cjc004_6807"
    INDEX 01 00:44:48
  TRACK 34 AUDIO
    TITLE "0:"
    INDEX 01 00:46:21
  TRACK 35 AUDIO
    TITLE "5:cjc004_6808"
    INDEX 01 00:46:51
  TRACK 36 AUDIO
    TITLE "0:"
    INDEX 01 00:51:48
  TRACK 37 AUDIO
    TITLE "3:cjc004_6809"
    INDEX 01 00:52:24
  TRACK 38 AUDIO
    TITLE "0:"
    INDEX 01 00:53:45
  TRACK 39 AUDIO
    TITLE "4:cjc004_6810"
    INDEX 01 00:53:74
  TRACK 40 AUDIO
    TITLE "0:"
    INDEX 01 00:56:16
  TRACK 41 AUDIO
    TITLE "5:cjc004_6811"
    INDEX 01 00:56:43
  TRACK 42 AUDIO
    TITLE "0:"
    INDEX 01 01:00:57
  TRACK 43 AUDIO
    TITLE "3:cjc004_6812"
    INDEX 01 01:01:36
  TRACK 44 AUDIO
    TITLE "0:"
    INDEX 01 01:02:48
  TRACK 45 AUDIO
    TITLE "4:cjc004_6813"
    INDEX 01 01:03:00
  TRACK 46 AUDIO
    TITLE "0:"
    INDEX 01 01:04:25
  TRACK 47 AUDIO
    TITLE "5:cjc004_6814"
    INDEX 01 01:04:45
  TRACK 48 AUDIO
    TITLE "0:"
    INDEX 01 01:09:34
  TRACK 49 AUDIO
    TITLE "3:cjc004_6815"
    INDEX 01 01:10:12
  TRACK 50 AUDIO
    TITLE "0:"
    INDEX 01 01:11:33
  TRACK 51 AUDIO
    TITLE "4:cjc004_6816"
    INDEX 01 01:11:60
  TRACK 52 AUDIO
    TITLE "0:"
    INDEX 01 01:12:66
  TRACK 53 AUDIO
    TITLE "5:cjc004_6817"
    INDEX 01 01:13:10
  TRACK 54 AUDIO
    TITLE "0:"
    INDEX 01 01:18:33
  TRACK 55 AUDIO
    TITLE "3:cjc004_6818"
    INDEX 01 01:19:15
  TRACK 56 AUDIO
    TITLE "0:"
    INDEX 01 01:20:46
  TRACK 57 AUDIO
    TITLE "4:cjc004_6819"
    INDEX 01 01:21:00
  TRACK 58 AUDIO
    TITLE "0:"
    INDEX 01 01:22:39
  TRACK 59 AUDIO
    TITLE "5:cjc004_6820"
    INDEX 01 01:22:60
  TRACK 60 AUDIO
    TITLE "0:"
    INDEX 01 01:28:00
